<?xml version="1.0" encoding="utf-8"?>
<!-- Generator: Adobe Illustrator 24.1.0, SVG Export Plug-In . SVG Version: 6.00 Build 0)  -->
<svg version="1.1" id="Layer_1" xmlns="http://www.w3.org/2000/svg" xmlns:xlink="http://www.w3.org/1999/xlink" x="0px" y="0px"
	 viewBox="0 0 800 600" style="enable-background:new 0 0 800 600;" xml:space="preserve">
<style type="text/css">
	.st0{fill:#705B03;}
	.st1{fill:#6875F5;}
	.st2{fill:#5B69CE;}
	.st3{fill:none;stroke:#000000;stroke-miterlimit:10;}
	.st4{fill:none;}
	.st5{fill:#FFFFFF;stroke:#FFFFFF;stroke-width:3;stroke-miterlimit:10;}
	.st6{font-family:'InterFace-Regular';}
	.st7{font-size:128px;}
</style>
<g>
	<g id="XMLID_1_">
		<g>
			<path class="st0" d="M214.04,317.56L214.04,317.56l-10.65-4.37c0.35-0.55,0.61-1.16,0.74-1.79l-0.01-0.05
				c0.02-0.04,0.05-0.08,0.07-0.12l-0.02-0.02c0.07-0.87,0.14-1.78,0.53-2.56c0.4-0.79,1.21-1.43,2.08-1.36
				c0.58,0.05,1.09,0.39,1.54,0.76c1.83,1.5,3.07,3.59,4.27,5.64c0.58,0.99,1.17,2,1.37,3.12
				C214.02,317.05,214.04,317.3,214.04,317.56z"/>
			<path class="st1" d="M213.09,319.95c0.03-0.03,0.07-0.06,0.1-0.09c-2.26,7.63-5.56,14.95-9.78,21.7
				c-5.35,7.62-13.12,13.02-21.32,17.21c-7.69,3.93-15.79,7.73-24.53,8.39c-9.12,0.68-18.57-0.84-27.53-2.61
				c-1.48-0.3-2.96-0.61-4.39-1.07c-1.67-0.54-3.27-1.28-4.92-1.89c-1.76-0.66-3.58-1.17-5.35-1.83
				c-8.93-3.33-16.37-10.44-22.22-17.76c-7.76-9.69-14.63-20.59-16.77-32.82c-1.39-7.91-0.73-16.01-0.07-24.01l0.4-0.6
				c1.96-2.85,3.93-5.69,5.89-8.54c0.33-0.49,0.58-1.02,0.75-1.58c2.37-7.97,1.49-18.41,0.05-26.45c-0.95-5.32-2.93-12.74,5.6-11.25
				c2.41,0.42,2.92,1.12,5.48,0.15c2.59-0.98,5.18-4.29,8.15-4.04c0.09,2.41-1.06,5.07-1.42,7.51c-0.47,3.24-1.02,6.46-1.6,9.68
				c-1.39,7.65-2.78,15.31-4.17,22.97c-0.01,0.04-0.01,0.07-0.02,0.11l-0.12-0.08c-0.34,1.27-0.67,2.53-1.01,3.8l-0.07,0.44
				c1.91,5.92,4.53,11.61,7.79,16.91c4.28,6.95,9.62,13.19,15.07,19.27l0.28,0.44c7.36,8.29,18.31,13.25,29.4,13.35
				c-0.11,0-0.22,0-0.32,0l1.29,0.09c16.55-0.17,32.6-5.22,48.37-10.21c2.46-0.78,5.04-1.62,6.85-3.47l-0.12,0.06
				c0.02-0.04,0.03-0.07,0.05-0.11l0.2,0.02c0.11-0.14,0.21-0.28,0.31-0.43l10.65,4.37c-0.45,0.87-0.81,1.77-1.09,2.71
				L213.09,319.95C213.09,319.95,213.09,319.95,213.09,319.95z"/>
			<path class="st0" d="M203.51,312.37c-0.1,0.25-0.2,0.5-0.29,0.75l0.17,0.07c-0.1,0.15-0.2,0.29-0.31,0.43l-0.2-0.02
				C203.08,313.18,203.29,312.77,203.51,312.37z"/>
			<path class="st2" d="M202.84,313.71l0.12-0.06c-1.81,1.85-4.38,2.69-6.85,3.47c-15.77,5-31.83,10.04-48.37,10.21l-1.29-0.09
				c0.11,0,0.22,0,0.32,0c0.32,0,0.64,0,0.96,0c-0.32,0-0.64,0-0.96,0c-11.08-0.1-22.04-5.06-29.4-13.35l-0.28-0.44
				c-5.44-6.09-10.78-12.32-15.07-19.27c-3.26-5.3-5.88-10.99-7.79-16.91l0.07-0.44c0.33-1.27,0.67-2.54,1.01-3.8l0.12,0.08
				c0.01-0.04,0.01-0.07,0.02-0.11l0.3,0.05c1.62,1.1,2.61,2.88,3.56,4.58c7.15,12.75,15.4,25.25,26.92,34.26
				c8.19,6.13,18.52,9.34,28.75,8.94c3.63-0.14,7.23-0.72,10.81-1.31c12.25-1.99,24.51-3.98,36.76-5.96l0.32,0.03
				C202.87,313.63,202.85,313.67,202.84,313.71z"/>
		</g>
		<g>
			<path class="st3" d="M146.77,327.24c-0.11,0-0.22,0-0.32,0l1.29,0.09c16.55-0.17,32.6-5.22,48.37-10.21
				c2.46-0.78,5.04-1.62,6.85-3.47l-0.12,0.06c0.02-0.04,0.03-0.07,0.05-0.11c0.19-0.42,0.4-0.83,0.62-1.23
				c0.19-0.35,0.4-0.69,0.61-1.02c0.02-0.04,0.05-0.08,0.07-0.12l-0.02-0.02c0.07-0.87,0.14-1.78,0.53-2.56
				c0.4-0.79,1.21-1.43,2.08-1.36c0.58,0.05,1.09,0.39,1.54,0.76c1.83,1.5,3.07,3.59,4.27,5.64c0.58,0.99,1.17,2,1.37,3.12
				c0.05,0.25,0.07,0.5,0.07,0.75c0,0.85-0.25,1.71-0.85,2.3c-0.03,0.03-0.07,0.06-0.1,0.09c0,0,0,0-0.01,0.01l-0.13,0.31
				c0.27-0.94,0.64-1.84,1.09-2.71l-10.65-4.37l-0.17-0.07c0.1-0.25,0.2-0.5,0.29-0.75c0.18-0.46,0.36-0.92,0.54-1.39l0.07,0.37
				l0.01,0.05c-0.13,0.64-0.38,1.25-0.74,1.79c-0.1,0.15-0.2,0.29-0.31,0.43l-0.2-0.02l-0.32-0.03
				c-12.25,1.99-24.51,3.98-36.76,5.96c-3.59,0.58-7.18,1.17-10.81,1.31c-10.22,0.4-20.55-2.81-28.75-8.94
				c-11.52-9-19.77-21.5-26.92-34.26c-0.95-1.71-1.95-3.48-3.56-4.58"/>
			<path class="st3" d="M146.77,327.24c0.32,0,0.64,0,0.96,0C147.41,327.24,147.09,327.24,146.77,327.24z"/>
			<path class="st3" d="M203.41,341.55c-5.35,7.62-13.12,13.02-21.32,17.21c-7.69,3.93-15.79,7.73-24.53,8.39
				c-9.12,0.68-18.57-0.84-27.53-2.61c-1.48-0.3-2.96-0.61-4.39-1.07c-1.67-0.54-3.27-1.28-4.92-1.89
				c-1.76-0.66-3.58-1.17-5.35-1.83c-8.93-3.33-16.37-10.44-22.22-17.76c-7.76-9.69-14.63-20.59-16.77-32.82
				c-1.39-7.91-0.73-16.01-0.07-24.01l0.4-0.6c1.96-2.85,3.93-5.69,5.89-8.54c0.33-0.49,0.58-1.02,0.75-1.58
				c2.37-7.97,1.49-18.41,0.05-26.45c-0.95-5.32-2.93-12.74,5.6-11.25c2.41,0.42,2.92,1.12,5.48,0.15c2.59-0.98,5.18-4.29,8.15-4.04
				c0.09,2.41-1.06,5.07-1.42,7.51c-0.47,3.24-1.02,6.46-1.6,9.68c-1.39,7.65-2.78,15.31-4.17,22.97c-0.01,0.04-0.01,0.07-0.02,0.11
				l-0.12-0.08c-0.34,1.27-0.67,2.53-1.01,3.8l-0.07,0.44c1.91,5.92,4.53,11.61,7.79,16.91c4.28,6.95,9.62,13.19,15.07,19.27
				l0.28,0.44c7.36,8.29,18.31,13.25,29.4,13.35"/>
			<path class="st3" d="M212.73,321.13l0.08-0.34l0.09-0.09l-0.09-0.08l0.28-0.67l0.25-0.6c-0.05,0.17-0.1,0.34-0.15,0.51
				c-2.26,7.63-5.56,14.95-9.78,21.7c-0.06,0.1-0.12,0.2-0.18,0.3"/>
		</g>
	</g>
	<path class="st3" d="M102.4,232.68c-1.51,0.65-2.69,1.87-3.85,3.04c-1.86,1.87-4.06,3.78-6.7,3.83c-2.58,0.05-5.15-1.72-7.58-0.86
		c-0.33,0.11-0.65,0.29-0.84,0.58c-0.2,0.31-0.21,0.69-0.32,1.03c-0.11,0.35-0.4,0.7-0.76,0.65"/>
</g>
<rect x="227" y="258.57" class="st4" width="471" height="125"/>
<text transform="matrix(1 0 0 1 227 343.9448)" class="st5 st6 st7">Plantain</text>
</svg>
