<svg width="624" height="150" viewBox="0 0 624 150" fill="none" xmlns="http://www.w3.org/2000/svg">
<path d="M139.039 92.5584L128.389 88.1884C128.739 87.6384 128.999 87.0284 129.129 86.3984L129.119 86.3484C129.139 86.3084 129.169 86.2685 129.189 86.2285L129.169 86.2084C129.239 85.3384 129.309 84.4284 129.699 83.6484C130.099 82.8584 130.909 82.2184 131.779 82.2884C132.359 82.3384 132.869 82.6784 133.319 83.0484C135.149 84.5484 136.389 86.6384 137.589 88.6884C138.169 89.6784 138.759 90.6884 138.959 91.8084C139.019 92.0484 139.039 92.2984 139.039 92.5584Z" fill="#705B03"/>
<path d="M138.09 94.9492C138.12 94.9192 138.16 94.8891 138.19 94.8591C135.93 102.489 132.63 109.809 128.41 116.559C123.06 124.179 115.29 129.579 107.09 133.769C99.3995 137.699 91.2995 141.499 82.5595 142.159C73.4395 142.839 63.9895 141.319 55.0295 139.549C53.5495 139.249 52.0695 138.939 50.6395 138.479C48.9695 137.939 47.3695 137.199 45.7195 136.589C43.9595 135.929 42.1395 135.419 40.3695 134.759C31.4395 131.429 23.9995 124.319 18.1495 116.999C10.3895 107.309 3.51952 96.4091 1.37952 84.1791C-0.0104754 76.2691 0.649525 68.1692 1.30952 60.1692L1.70953 59.5691C3.66953 56.7191 5.63953 53.8791 7.59953 51.0291C7.92953 50.5391 8.17953 50.0092 8.34953 49.4492C10.7195 41.4791 9.83953 31.0391 8.39953 22.9991C7.44953 17.6791 5.46953 10.2591 13.9995 11.7491C16.4095 12.1691 16.9195 12.8691 19.4795 11.8991C22.0695 10.9191 24.6595 7.60914 27.6295 7.85914C27.7195 10.2691 26.5695 12.9291 26.2095 15.3691C25.7395 18.6091 25.1895 21.8291 24.6095 25.0491C23.2195 32.6991 21.8295 40.3591 20.4395 48.0191C20.4295 48.0591 20.4295 48.0891 20.4195 48.1291L20.2995 48.0491C19.9595 49.3191 19.6295 50.5791 19.2895 51.8491L19.2195 52.2891C21.1295 58.2091 23.7495 63.8992 27.0095 69.1992C31.2895 76.1491 36.6295 82.3891 42.0795 88.4691L42.3595 88.9091C49.7195 97.1991 60.6695 102.159 71.7595 102.259C71.6495 102.259 71.5395 102.259 71.4395 102.259L72.7295 102.349C89.2795 102.179 105.33 97.1292 121.1 92.1392C123.56 91.3592 126.14 90.5191 127.95 88.6692L127.83 88.7291C127.85 88.6891 127.86 88.6591 127.88 88.6191L128.08 88.6392C128.19 88.4992 128.29 88.3591 128.39 88.2091L139.04 92.5791C138.59 93.4491 138.23 94.3491 137.95 95.2891L138.09 94.9492Z" fill="#6875F5"/>
<path d="M128.509 87.3691C128.409 87.6191 128.309 87.8691 128.219 88.1191L128.389 88.1891C128.289 88.3391 128.189 88.4791 128.079 88.6191L127.879 88.5992C128.079 88.1792 128.289 87.7691 128.509 87.3691Z" fill="#705B03"/>
<path d="M127.84 88.71L127.96 88.65C126.15 90.5 123.58 91.34 121.11 92.12C105.34 97.12 89.2805 102.16 72.7405 102.33L71.4505 102.24C71.5605 102.24 71.6705 102.24 71.7705 102.24C72.0905 102.24 72.4105 102.24 72.7305 102.24C72.4105 102.24 72.0905 102.24 71.7705 102.24C60.6905 102.14 49.7305 97.18 42.3705 88.89L42.0905 88.45C36.6505 82.36 31.3105 76.13 27.0205 69.18C23.7605 63.88 21.1405 58.19 19.2305 52.27L19.3005 51.83C19.6305 50.56 19.9705 49.29 20.3105 48.03L20.4305 48.11C20.4405 48.07 20.4405 48.04 20.4505 48L20.7505 48.05C22.3705 49.15 23.3605 50.93 24.3105 52.63C31.4605 65.38 39.7105 77.88 51.2305 86.89C59.4205 93.02 69.7505 96.23 79.9805 95.83C83.6105 95.69 87.2105 95.11 90.7905 94.52C103.04 92.53 115.3 90.54 127.55 88.56L127.87 88.59C127.87 88.63 127.85 88.67 127.84 88.71Z" fill="#5B69CE"/>
<path d="M71.77 102.239C71.66 102.239 71.55 102.239 71.45 102.239L72.74 102.329C89.29 102.159 105.34 97.1086 121.11 92.1186C123.57 91.3386 126.15 90.4986 127.96 88.6486L127.84 88.7086C127.86 88.6686 127.87 88.6386 127.89 88.5986C128.08 88.1786 128.29 87.7686 128.51 87.3686C128.7 87.0186 128.91 86.6786 129.12 86.3486C129.14 86.3086 129.17 86.2686 129.19 86.2286L129.17 86.2086C129.24 85.3386 129.31 84.4286 129.7 83.6486C130.1 82.8586 130.91 82.2186 131.78 82.2886C132.36 82.3386 132.87 82.6786 133.32 83.0486C135.15 84.5486 136.39 86.6386 137.59 88.6886C138.17 89.6786 138.76 90.6886 138.96 91.8086C139.01 92.0586 139.03 92.3086 139.03 92.5586C139.03 93.4086 138.78 94.2686 138.18 94.8586C138.15 94.8886 138.11 94.9186 138.08 94.9486C138.08 94.9486 138.08 94.9486 138.07 94.9586L137.94 95.2686C138.21 94.3286 138.58 93.4286 139.03 92.5586L128.38 88.1886L128.21 88.1186C128.31 87.8686 128.41 87.6186 128.5 87.3686C128.68 86.9086 128.86 86.4486 129.04 85.9786L129.11 86.3486L129.12 86.3986C128.99 87.0386 128.74 87.6486 128.38 88.1886C128.28 88.3386 128.18 88.4786 128.07 88.6186L127.87 88.5986L127.55 88.5686C115.3 90.5586 103.04 92.5486 90.79 94.5286C87.2 95.1086 83.61 95.6986 79.98 95.8386C69.76 96.2386 59.43 93.0286 51.23 86.8986C39.71 77.8986 31.46 65.3986 24.31 52.6386C23.36 50.9286 22.36 49.1586 20.75 48.0586" stroke="black" stroke-miterlimit="10"/>
<path d="M71.7695 102.24C72.0895 102.24 72.4095 102.24 72.7295 102.24C72.4095 102.24 72.0895 102.24 71.7695 102.24Z" stroke="black" stroke-miterlimit="10"/>
<path d="M128.41 116.549C123.06 124.169 115.29 129.569 107.09 133.759C99.3995 137.689 91.2995 141.489 82.5595 142.149C73.4395 142.829 63.9895 141.309 55.0295 139.539C53.5495 139.239 52.0695 138.929 50.6395 138.469C48.9695 137.929 47.3695 137.189 45.7195 136.579C43.9595 135.919 42.1395 135.409 40.3695 134.749C31.4395 131.419 23.9995 124.309 18.1495 116.989C10.3895 107.299 3.51952 96.3994 1.37952 84.1694C-0.0104754 76.2594 0.649525 68.1594 1.30952 60.1594L1.70953 59.5594C3.66953 56.7094 5.63953 53.8694 7.59953 51.0194C7.92953 50.5294 8.17953 49.9994 8.34953 49.4394C10.7195 41.4694 9.83953 31.0294 8.39953 22.9894C7.44953 17.6694 5.46953 10.2494 13.9995 11.7394C16.4095 12.1594 16.9195 12.8594 19.4795 11.8894C22.0695 10.9094 24.6595 7.59937 27.6295 7.84937C27.7195 10.2594 26.5695 12.9194 26.2095 15.3594C25.7395 18.5994 25.1895 21.8194 24.6095 25.0394C23.2195 32.6894 21.8295 40.3494 20.4395 48.0094C20.4295 48.0494 20.4295 48.0794 20.4195 48.1194L20.2995 48.0394C19.9595 49.3094 19.6295 50.5694 19.2895 51.8394L19.2195 52.2794C21.1295 58.1994 23.7495 63.8894 27.0095 69.1894C31.2895 76.1394 36.6295 82.3794 42.0795 88.4594L42.3595 88.8994C49.7195 97.1894 60.6695 102.149 71.7595 102.249" stroke="black" stroke-miterlimit="10"/>
<path d="M137.73 96.1296L137.81 95.7896L137.9 95.6996L137.81 95.6196L138.09 94.9496L138.34 94.3496C138.29 94.5196 138.24 94.6896 138.19 94.8596C135.93 102.49 132.63 109.81 128.41 116.56C128.35 116.66 128.29 116.76 128.23 116.86" stroke="black" stroke-miterlimit="10"/>
<path d="M27.3996 7.67969C25.8896 8.32969 24.7096 9.5497 23.5496 10.7197C21.6896 12.5897 19.4896 14.4997 16.8496 14.5497C14.2696 14.5997 11.6996 12.8297 9.26961 13.6897C8.93961 13.7997 8.61961 13.9797 8.42961 14.2697C8.22961 14.5797 8.21961 14.9597 8.10961 15.2997C7.99961 15.6497 7.70961 15.9997 7.34961 15.9497" stroke="black" stroke-miterlimit="10"/>
<path d="M180.562 83.375V119H168.562V28H202.125C212.083 28 219.875 30.5417 225.5 35.625C231.167 40.7083 234 47.4375 234 55.8125C234 64.6458 231.229 71.4583 225.688 76.25C220.188 81 212.292 83.375 202 83.375H180.562ZM180.562 73.5625H202.125C208.542 73.5625 213.458 72.0625 216.875 69.0625C220.292 66.0208 222 61.6458 222 55.9375C222 50.5208 220.292 46.1875 216.875 42.9375C213.458 39.6875 208.771 38 202.812 37.875H180.562V73.5625ZM260.062 119H248.5V23H260.062V119ZM320.375 119C319.708 117.667 319.167 115.292 318.75 111.875C313.375 117.458 306.958 120.25 299.5 120.25C292.833 120.25 287.354 118.375 283.062 114.625C278.812 110.833 276.688 106.042 276.688 100.25C276.688 93.2083 279.354 87.75 284.688 83.875C290.062 79.9583 297.604 78 307.312 78H318.562V72.6875C318.562 68.6458 317.354 65.4375 314.938 63.0625C312.521 60.6458 308.958 59.4375 304.25 59.4375C300.125 59.4375 296.667 60.4792 293.875 62.5625C291.083 64.6458 289.688 67.1667 289.688 70.125H278.062C278.062 66.75 279.25 63.5 281.625 60.375C284.042 57.2083 287.292 54.7083 291.375 52.875C295.5 51.0417 300.021 50.125 304.938 50.125C312.729 50.125 318.833 52.0833 323.25 56C327.667 59.875 329.958 65.2292 330.125 72.0625V103.188C330.125 109.396 330.917 114.333 332.5 118V119H320.375ZM301.188 110.188C304.812 110.188 308.25 109.25 311.5 107.375C314.75 105.5 317.104 103.062 318.562 100.062V86.1875H309.5C295.333 86.1875 288.25 90.3333 288.25 98.625C288.25 102.25 289.458 105.083 291.875 107.125C294.292 109.167 297.396 110.188 301.188 110.188ZM359.188 51.375L359.562 59.875C364.729 53.375 371.479 50.125 379.812 50.125C394.104 50.125 401.312 58.1875 401.438 74.3125V119H389.875V74.25C389.833 69.375 388.708 65.7708 386.5 63.4375C384.333 61.1042 380.938 59.9375 376.312 59.9375C372.562 59.9375 369.271 60.9375 366.438 62.9375C363.604 64.9375 361.396 67.5625 359.812 70.8125V119H348.25V51.375H359.188ZM434.562 35V51.375H447.188V60.3125H434.562V102.25C434.562 104.958 435.125 107 436.25 108.375C437.375 109.708 439.292 110.375 442 110.375C443.333 110.375 445.167 110.125 447.5 109.625V119C444.458 119.833 441.5 120.25 438.625 120.25C433.458 120.25 429.562 118.688 426.938 115.562C424.312 112.438 423 108 423 102.25V60.3125H410.688V51.375H423V35H434.562ZM502.5 119C501.833 117.667 501.292 115.292 500.875 111.875C495.5 117.458 489.083 120.25 481.625 120.25C474.958 120.25 469.479 118.375 465.188 114.625C460.938 110.833 458.812 106.042 458.812 100.25C458.812 93.2083 461.479 87.75 466.812 83.875C472.188 79.9583 479.729 78 489.438 78H500.688V72.6875C500.688 68.6458 499.479 65.4375 497.062 63.0625C494.646 60.6458 491.083 59.4375 486.375 59.4375C482.25 59.4375 478.792 60.4792 476 62.5625C473.208 64.6458 471.812 67.1667 471.812 70.125H460.188C460.188 66.75 461.375 63.5 463.75 60.375C466.167 57.2083 469.417 54.7083 473.5 52.875C477.625 51.0417 482.146 50.125 487.062 50.125C494.854 50.125 500.958 52.0833 505.375 56C509.792 59.875 512.083 65.2292 512.25 72.0625V103.188C512.25 109.396 513.042 114.333 514.625 118V119H502.5ZM483.312 110.188C486.938 110.188 490.375 109.25 493.625 107.375C496.875 105.5 499.229 103.062 500.688 100.062V86.1875H491.625C477.458 86.1875 470.375 90.3333 470.375 98.625C470.375 102.25 471.583 105.083 474 107.125C476.417 109.167 479.521 110.188 483.312 110.188ZM542.938 119H531.375V51.375H542.938V119ZM530.438 33.4375C530.438 31.5625 531 29.9792 532.125 28.6875C533.292 27.3958 535 26.75 537.25 26.75C539.5 26.75 541.208 27.3958 542.375 28.6875C543.542 29.9792 544.125 31.5625 544.125 33.4375C544.125 35.3125 543.542 36.875 542.375 38.125C541.208 39.375 539.5 40 537.25 40C535 40 533.292 39.375 532.125 38.125C531 36.875 530.438 35.3125 530.438 33.4375ZM572.438 51.375L572.812 59.875C577.979 53.375 584.729 50.125 593.062 50.125C607.354 50.125 614.562 58.1875 614.688 74.3125V119H603.125V74.25C603.083 69.375 601.958 65.7708 599.75 63.4375C597.583 61.1042 594.188 59.9375 589.562 59.9375C585.812 59.9375 582.521 60.9375 579.688 62.9375C576.854 64.9375 574.646 67.5625 573.062 70.8125V119H561.5V51.375H572.438Z" fill="white"/>
<path d="M180.562 83.375V81.875H179.062V83.375H180.562ZM180.562 119V120.5H182.062V119H180.562ZM168.562 119H167.062V120.5H168.562V119ZM168.562 28V26.5H167.062V28H168.562ZM225.5 35.625L224.494 36.7379L224.498 36.7416L225.5 35.625ZM225.688 76.25L226.668 77.3852L226.669 77.3847L225.688 76.25ZM180.562 73.5625H179.062V75.0625H180.562V73.5625ZM216.875 69.0625L217.865 70.1897L217.872 70.1829L216.875 69.0625ZM202.812 37.875L202.844 36.3753L202.828 36.375H202.812V37.875ZM180.562 37.875V36.375H179.062V37.875H180.562ZM179.062 83.375V119H182.062V83.375H179.062ZM180.562 117.5H168.562V120.5H180.562V117.5ZM170.062 119V28H167.062V119H170.062ZM168.562 29.5H202.125V26.5H168.562V29.5ZM202.125 29.5C211.831 29.5 219.222 31.9735 224.494 36.7379L226.506 34.5121C220.528 29.1098 212.336 26.5 202.125 26.5V29.5ZM224.498 36.7416C229.814 41.51 232.5 47.8159 232.5 55.8125H235.5C235.5 47.0591 232.519 39.9067 226.502 34.5084L224.498 36.7416ZM232.5 55.8125C232.5 64.3083 229.851 70.6671 224.706 75.1153L226.669 77.3847C232.607 72.2496 235.5 64.9834 235.5 55.8125H232.5ZM224.707 75.1148C219.574 79.5479 212.08 81.875 202 81.875V84.875C212.503 84.875 220.801 82.4521 226.668 77.3852L224.707 75.1148ZM202 81.875H180.562V84.875H202V81.875ZM180.562 75.0625H202.125V72.0625H180.562V75.0625ZM202.125 75.0625C208.757 75.0625 214.08 73.5127 217.865 70.1897L215.885 67.9353C212.837 70.6123 208.326 72.0625 202.125 72.0625V75.0625ZM217.872 70.1829C221.685 66.7885 223.5 61.9596 223.5 55.9375H220.5C220.5 61.332 218.898 65.2532 215.878 67.9421L217.872 70.1829ZM223.5 55.9375C223.5 50.1768 221.668 45.4268 217.909 41.8507L215.841 44.0243C218.915 46.9482 220.5 50.8649 220.5 55.9375H223.5ZM217.909 41.8507C214.155 38.2801 209.074 36.506 202.844 36.3753L202.781 39.3747C208.468 39.494 212.762 41.0949 215.841 44.0243L217.909 41.8507ZM202.812 36.375H180.562V39.375H202.812V36.375ZM179.062 37.875V73.5625H182.062V37.875H179.062ZM260.062 119V120.5H261.562V119H260.062ZM248.5 119H247V120.5H248.5V119ZM248.5 23V21.5H247V23H248.5ZM260.062 23H261.562V21.5H260.062V23ZM260.062 117.5H248.5V120.5H260.062V117.5ZM250 119V23H247V119H250ZM248.5 24.5H260.062V21.5H248.5V24.5ZM258.562 23V119H261.562V23H258.562ZM320.375 119L319.033 119.671L319.448 120.5H320.375V119ZM318.75 111.875L320.239 111.693L319.857 108.562L317.669 110.835L318.75 111.875ZM283.062 114.625L282.064 115.744L282.07 115.749L282.076 115.755L283.062 114.625ZM284.688 83.875L285.569 85.0885L285.571 85.0873L284.688 83.875ZM318.562 78V79.5H320.062V78H318.562ZM314.938 63.0625L313.877 64.1232L313.886 64.1323L314.938 63.0625ZM289.688 70.125V71.625H291.188V70.125H289.688ZM278.062 70.125H276.562V71.625H278.062V70.125ZM281.625 60.375L280.433 59.465L280.431 59.4674L281.625 60.375ZM291.375 52.875L290.766 51.5043L290.761 51.5066L291.375 52.875ZM323.25 56L322.255 57.1223L322.261 57.1275L323.25 56ZM330.125 72.0625H331.625V72.0442L331.625 72.0259L330.125 72.0625ZM332.5 118H334V117.69L333.877 117.405L332.5 118ZM332.5 119V120.5H334V119H332.5ZM318.562 100.062L319.912 100.718L320.062 100.408V100.062H318.562ZM318.562 86.1875H320.062V84.6875H318.562V86.1875ZM321.717 118.329C321.176 117.249 320.655 115.104 320.239 111.693L317.261 112.057C317.678 115.479 318.24 118.085 319.033 119.671L321.717 118.329ZM317.669 110.835C312.565 116.137 306.533 118.75 299.5 118.75V121.75C307.384 121.75 314.185 118.779 319.831 112.915L317.669 110.835ZM299.5 118.75C293.131 118.75 288.022 116.967 284.049 113.495L282.076 115.755C286.686 119.783 292.536 121.75 299.5 121.75V118.75ZM284.061 113.506C280.136 110.004 278.188 105.622 278.188 100.25H275.188C275.188 106.461 277.489 111.663 282.064 115.744L284.061 113.506ZM278.188 100.25C278.188 93.6502 280.654 88.6595 285.569 85.0885L283.806 82.6615C278.054 86.8405 275.188 92.7665 275.188 100.25H278.188ZM285.571 85.0873C290.596 81.4258 297.782 79.5 307.312 79.5V76.5C297.426 76.5 289.529 78.4908 283.804 82.6627L285.571 85.0873ZM307.312 79.5H318.562V76.5H307.312V79.5ZM320.062 78V72.6875H317.062V78H320.062ZM320.062 72.6875C320.062 68.3269 318.747 64.7032 315.989 61.9927L313.886 64.1323C315.961 66.1718 317.062 68.9648 317.062 72.6875H320.062ZM315.998 62.0018C313.208 59.2114 309.203 57.9375 304.25 57.9375V60.9375C308.714 60.9375 311.834 62.0803 313.877 64.1232L315.998 62.0018ZM304.25 57.9375C299.863 57.9375 296.074 59.0499 292.978 61.3604L294.772 63.7646C297.259 61.9085 300.387 60.9375 304.25 60.9375V57.9375ZM292.978 61.3604C289.883 63.6699 288.188 66.6056 288.188 70.125H291.188C291.188 67.7277 292.284 65.6217 294.772 63.7646L292.978 61.3604ZM289.688 68.625H278.062V71.625H289.688V68.625ZM279.562 70.125C279.562 67.1294 280.609 64.1909 282.819 61.2826L280.431 59.4674C277.891 62.8091 276.562 66.3706 276.562 70.125H279.562ZM282.817 61.285C285.065 58.3404 288.105 55.9873 291.989 54.2434L290.761 51.5066C286.478 53.4294 283.019 56.0763 280.433 59.465L282.817 61.285ZM291.984 54.2457C295.901 52.505 300.212 51.625 304.938 51.625V48.625C299.83 48.625 295.099 49.5783 290.766 51.5043L291.984 54.2457ZM304.938 51.625C312.482 51.625 318.19 53.518 322.255 57.1223L324.245 54.8777C319.476 50.6486 312.976 48.625 304.938 48.625V51.625ZM322.261 57.1275C326.31 60.6803 328.467 65.6098 328.625 72.0991L331.625 72.0259C331.449 64.8486 329.023 59.0697 324.239 54.8725L322.261 57.1275ZM328.625 72.0625V103.188H331.625V72.0625H328.625ZM328.625 103.188C328.625 109.499 329.426 114.665 331.123 118.595L333.877 117.405C332.407 114.001 331.625 109.293 331.625 103.188H328.625ZM331 118V119H334V118H331ZM332.5 117.5H320.375V120.5H332.5V117.5ZM301.188 111.688C305.085 111.688 308.78 110.676 312.25 108.674L310.75 106.076C307.72 107.824 304.54 108.688 301.188 108.688V111.688ZM312.25 108.674C315.726 106.669 318.306 104.021 319.912 100.718L317.213 99.4067C315.902 102.104 313.774 104.331 310.75 106.076L312.25 108.674ZM320.062 100.062V86.1875H317.062V100.062H320.062ZM318.562 84.6875H309.5V87.6875H318.562V84.6875ZM309.5 84.6875C302.319 84.6875 296.688 85.7295 292.805 88.0023C288.798 90.3477 286.75 93.9532 286.75 98.625H289.75C289.75 95.0051 291.244 92.3919 294.32 90.5914C297.52 88.7184 302.514 87.6875 309.5 87.6875V84.6875ZM286.75 98.625C286.75 102.62 288.102 105.901 290.907 108.271L292.843 105.979C290.815 104.266 289.75 101.88 289.75 98.625H286.75ZM290.907 108.271C293.646 110.585 297.115 111.688 301.188 111.688V108.688C297.677 108.688 294.938 107.749 292.843 105.979L290.907 108.271ZM359.188 51.375L360.686 51.3089L360.623 49.875H359.188V51.375ZM359.562 59.875L358.064 59.9411L358.241 63.9485L360.737 60.8084L359.562 59.875ZM401.438 74.3125H402.938L402.937 74.3009L401.438 74.3125ZM401.438 119V120.5H402.938V119H401.438ZM389.875 119H388.375V120.5H389.875V119ZM389.875 74.25H391.375L391.375 74.2372L389.875 74.25ZM386.5 63.4375L385.401 64.4582L385.406 64.4634L385.411 64.4686L386.5 63.4375ZM359.812 70.8125L358.464 70.1555L358.312 70.4666V70.8125H359.812ZM359.812 119V120.5H361.312V119H359.812ZM348.25 119H346.75V120.5H348.25V119ZM348.25 51.375V49.875H346.75V51.375H348.25ZM357.689 51.4411L358.064 59.9411L361.061 59.8089L360.686 51.3089L357.689 51.4411ZM360.737 60.8084C365.618 54.6679 371.935 51.625 379.812 51.625V48.625C371.024 48.625 363.841 52.0821 358.388 58.9416L360.737 60.8084ZM379.812 51.625C386.676 51.625 391.584 53.5527 394.819 57.1716C398.085 60.8243 399.877 66.4523 399.938 74.3241L402.937 74.3009C402.873 66.0477 400.998 59.5819 397.056 55.1721C393.083 50.7286 387.24 48.625 379.812 48.625V51.625ZM399.938 74.3125V119H402.938V74.3125H399.938ZM401.438 117.5H389.875V120.5H401.438V117.5ZM391.375 119V74.25H388.375V119H391.375ZM391.375 74.2372C391.332 69.174 390.165 65.128 387.589 62.4064L385.411 64.4686C387.251 66.4137 388.335 69.576 388.375 74.2628L391.375 74.2372ZM387.599 62.4168C385.041 59.6614 381.163 58.4375 376.312 58.4375V61.4375C380.712 61.4375 383.626 62.5469 385.401 64.4582L387.599 62.4168ZM376.312 58.4375C372.279 58.4375 368.68 59.5187 365.572 61.712L367.303 64.1629C369.862 62.3563 372.846 61.4375 376.312 61.4375V58.4375ZM365.572 61.712C362.524 63.8641 360.153 66.6883 358.464 70.1555L361.161 71.4695C362.639 68.4367 364.685 66.0109 367.303 64.1629L365.572 61.712ZM358.312 70.8125V119H361.312V70.8125H358.312ZM359.812 117.5H348.25V120.5H359.812V117.5ZM349.75 119V51.375H346.75V119H349.75ZM348.25 52.875H359.188V49.875H348.25V52.875ZM434.562 35H436.062V33.5H434.562V35ZM434.562 51.375H433.062V52.875H434.562V51.375ZM447.188 51.375H448.688V49.875H447.188V51.375ZM447.188 60.3125V61.8125H448.688V60.3125H447.188ZM434.562 60.3125V58.8125H433.062V60.3125H434.562ZM436.25 108.375L435.089 109.325L435.096 109.334L435.104 109.342L436.25 108.375ZM447.5 109.625H449V107.77L447.186 108.158L447.5 109.625ZM447.5 119L447.896 120.447L449 120.144V119H447.5ZM423 60.3125H424.5V58.8125H423V60.3125ZM410.688 60.3125H409.188V61.8125H410.688V60.3125ZM410.688 51.375V49.875H409.188V51.375H410.688ZM423 51.375V52.875H424.5V51.375H423ZM423 35V33.5H421.5V35H423ZM433.062 35V51.375H436.062V35H433.062ZM434.562 52.875H447.188V49.875H434.562V52.875ZM445.688 51.375V60.3125H448.688V51.375H445.688ZM447.188 58.8125H434.562V61.8125H447.188V58.8125ZM433.062 60.3125V102.25H436.062V60.3125H433.062ZM433.062 102.25C433.062 105.131 433.656 107.573 435.089 109.325L437.411 107.425C436.594 106.427 436.062 104.785 436.062 102.25H433.062ZM435.104 109.342C436.641 111.164 439.094 111.875 442 111.875V108.875C439.489 108.875 438.109 108.253 437.396 107.408L435.104 109.342ZM442 111.875C443.491 111.875 445.445 111.599 447.814 111.092L447.186 108.158C444.888 108.651 443.176 108.875 442 108.875V111.875ZM446 109.625V119H449V109.625H446ZM447.104 117.553C444.179 118.355 441.354 118.75 438.625 118.75V121.75C441.646 121.75 444.738 121.312 447.896 120.447L447.104 117.553ZM438.625 118.75C433.774 118.75 430.353 117.297 428.086 114.598L425.789 116.527C428.772 120.078 433.143 121.75 438.625 121.75V118.75ZM428.086 114.598C425.765 111.835 424.5 107.79 424.5 102.25H421.5C421.5 108.21 422.86 113.04 425.789 116.527L428.086 114.598ZM424.5 102.25V60.3125H421.5V102.25H424.5ZM423 58.8125H410.688V61.8125H423V58.8125ZM412.188 60.3125V51.375H409.188V60.3125H412.188ZM410.688 52.875H423V49.875H410.688V52.875ZM424.5 51.375V35H421.5V51.375H424.5ZM423 36.5H434.562V33.5H423V36.5ZM502.5 119L501.158 119.671L501.573 120.5H502.5V119ZM500.875 111.875L502.364 111.693L501.982 108.562L499.794 110.835L500.875 111.875ZM465.188 114.625L464.189 115.744L464.195 115.749L464.201 115.755L465.188 114.625ZM466.812 83.875L467.694 85.0885L467.696 85.0873L466.812 83.875ZM500.688 78V79.5H502.188V78H500.688ZM497.062 63.0625L496.002 64.1232L496.011 64.1323L497.062 63.0625ZM471.812 70.125V71.625H473.312V70.125H471.812ZM460.188 70.125H458.688V71.625H460.188V70.125ZM463.75 60.375L462.558 59.465L462.556 59.4674L463.75 60.375ZM473.5 52.875L472.891 51.5043L472.886 51.5066L473.5 52.875ZM505.375 56L504.38 57.1223L504.386 57.1275L505.375 56ZM512.25 72.0625H513.75V72.0442L513.75 72.0259L512.25 72.0625ZM514.625 118H516.125V117.69L516.002 117.405L514.625 118ZM514.625 119V120.5H516.125V119H514.625ZM500.688 100.062L502.037 100.718L502.188 100.408V100.062H500.688ZM500.688 86.1875H502.188V84.6875H500.688V86.1875ZM503.842 118.329C503.301 117.249 502.78 115.104 502.364 111.693L499.386 112.057C499.803 115.479 500.365 118.085 501.158 119.671L503.842 118.329ZM499.794 110.835C494.69 116.137 488.658 118.75 481.625 118.75V121.75C489.509 121.75 496.31 118.779 501.956 112.915L499.794 110.835ZM481.625 118.75C475.256 118.75 470.147 116.967 466.174 113.495L464.201 115.755C468.811 119.783 474.661 121.75 481.625 121.75V118.75ZM466.186 113.506C462.261 110.004 460.312 105.622 460.312 100.25H457.312C457.312 106.461 459.614 111.663 464.189 115.744L466.186 113.506ZM460.312 100.25C460.312 93.6502 462.779 88.6595 467.694 85.0885L465.931 82.6615C460.179 86.8405 457.312 92.7665 457.312 100.25H460.312ZM467.696 85.0873C472.721 81.4258 479.907 79.5 489.438 79.5V76.5C479.551 76.5 471.654 78.4908 465.929 82.6627L467.696 85.0873ZM489.438 79.5H500.688V76.5H489.438V79.5ZM502.188 78V72.6875H499.188V78H502.188ZM502.188 72.6875C502.188 68.3269 500.872 64.7032 498.114 61.9927L496.011 64.1323C498.086 66.1718 499.188 68.9648 499.188 72.6875H502.188ZM498.123 62.0018C495.333 59.2114 491.328 57.9375 486.375 57.9375V60.9375C490.839 60.9375 493.959 62.0803 496.002 64.1232L498.123 62.0018ZM486.375 57.9375C481.988 57.9375 478.199 59.0499 475.103 61.3604L476.897 63.7646C479.384 61.9085 482.512 60.9375 486.375 60.9375V57.9375ZM475.103 61.3604C472.008 63.6699 470.312 66.6056 470.312 70.125H473.312C473.312 67.7277 474.409 65.6217 476.897 63.7646L475.103 61.3604ZM471.812 68.625H460.188V71.625H471.812V68.625ZM461.688 70.125C461.688 67.1294 462.734 64.1909 464.944 61.2826L462.556 59.4674C460.016 62.8091 458.688 66.3706 458.688 70.125H461.688ZM464.942 61.285C467.19 58.3404 470.23 55.9873 474.114 54.2434L472.886 51.5066C468.603 53.4294 465.144 56.0763 462.558 59.465L464.942 61.285ZM474.109 54.2457C478.026 52.505 482.337 51.625 487.062 51.625V48.625C481.955 48.625 477.224 49.5783 472.891 51.5043L474.109 54.2457ZM487.062 51.625C494.607 51.625 500.315 53.518 504.38 57.1223L506.37 54.8777C501.601 50.6486 495.101 48.625 487.062 48.625V51.625ZM504.386 57.1275C508.435 60.6803 510.592 65.6098 510.75 72.0991L513.75 72.0259C513.574 64.8486 511.148 59.0697 506.364 54.8725L504.386 57.1275ZM510.75 72.0625V103.188H513.75V72.0625H510.75ZM510.75 103.188C510.75 109.499 511.551 114.665 513.248 118.595L516.002 117.405C514.532 114.001 513.75 109.293 513.75 103.188H510.75ZM513.125 118V119H516.125V118H513.125ZM514.625 117.5H502.5V120.5H514.625V117.5ZM483.312 111.688C487.21 111.688 490.905 110.676 494.375 108.674L492.875 106.076C489.845 107.824 486.665 108.688 483.312 108.688V111.688ZM494.375 108.674C497.851 106.669 500.431 104.021 502.037 100.718L499.338 99.4067C498.027 102.104 495.899 104.331 492.875 106.076L494.375 108.674ZM502.188 100.062V86.1875H499.188V100.062H502.188ZM500.688 84.6875H491.625V87.6875H500.688V84.6875ZM491.625 84.6875C484.444 84.6875 478.813 85.7295 474.93 88.0023C470.923 90.3477 468.875 93.9532 468.875 98.625H471.875C471.875 95.0051 473.369 92.3919 476.445 90.5914C479.645 88.7184 484.639 87.6875 491.625 87.6875V84.6875ZM468.875 98.625C468.875 102.62 470.227 105.901 473.032 108.271L474.968 105.979C472.94 104.266 471.875 101.88 471.875 98.625H468.875ZM473.032 108.271C475.771 110.585 479.24 111.688 483.312 111.688V108.688C479.802 108.688 477.063 107.749 474.968 105.979L473.032 108.271ZM542.938 119V120.5H544.438V119H542.938ZM531.375 119H529.875V120.5H531.375V119ZM531.375 51.375V49.875H529.875V51.375H531.375ZM542.938 51.375H544.438V49.875H542.938V51.375ZM532.125 28.6875L531.012 27.6821L531.003 27.6921L530.994 27.7023L532.125 28.6875ZM532.125 38.125L531.01 39.1284L531.019 39.1385L531.028 39.1485L532.125 38.125ZM542.938 117.5H531.375V120.5H542.938V117.5ZM532.875 119V51.375H529.875V119H532.875ZM531.375 52.875H542.938V49.875H531.375V52.875ZM541.438 51.375V119H544.438V51.375H541.438ZM531.938 33.4375C531.938 31.8877 532.392 30.6646 533.256 29.6727L530.994 27.7023C529.608 29.2937 528.938 31.2373 528.938 33.4375H531.938ZM533.238 29.6929C534.043 28.8022 535.292 28.25 537.25 28.25V25.25C534.708 25.25 532.541 25.9894 531.012 27.6821L533.238 29.6929ZM537.25 28.25C539.208 28.25 540.457 28.8022 541.262 29.6929L543.488 27.6821C541.959 25.9894 539.792 25.25 537.25 25.25V28.25ZM541.262 29.6929C542.159 30.6866 542.625 31.9028 542.625 33.4375H545.625C545.625 31.2222 544.924 29.2717 543.488 27.6821L541.262 29.6929ZM542.625 33.4375C542.625 34.9725 542.16 36.1572 541.278 37.1015L543.472 39.1485C544.923 37.5928 545.625 35.6525 545.625 33.4375H542.625ZM541.278 37.1015C540.477 37.9597 539.222 38.5 537.25 38.5V41.5C539.778 41.5 541.939 40.7903 543.472 39.1485L541.278 37.1015ZM537.25 38.5C535.278 38.5 534.023 37.9597 533.222 37.1015L531.028 39.1485C532.561 40.7903 534.722 41.5 537.25 41.5V38.5ZM533.24 37.1216C532.392 36.1793 531.938 34.9878 531.938 33.4375H528.938C528.938 35.6372 529.608 37.5707 531.01 39.1284L533.24 37.1216ZM572.438 51.375L573.936 51.3089L573.873 49.875H572.438V51.375ZM572.812 59.875L571.314 59.9411L571.491 63.9485L573.987 60.8084L572.812 59.875ZM614.688 74.3125H616.188L616.187 74.3009L614.688 74.3125ZM614.688 119V120.5H616.188V119H614.688ZM603.125 119H601.625V120.5H603.125V119ZM603.125 74.25H604.625L604.625 74.2372L603.125 74.25ZM599.75 63.4375L598.651 64.4582L598.656 64.4634L598.661 64.4686L599.75 63.4375ZM573.062 70.8125L571.714 70.1555L571.562 70.4666V70.8125H573.062ZM573.062 119V120.5H574.562V119H573.062ZM561.5 119H560V120.5H561.5V119ZM561.5 51.375V49.875H560V51.375H561.5ZM570.939 51.4411L571.314 59.9411L574.311 59.8089L573.936 51.3089L570.939 51.4411ZM573.987 60.8084C578.868 54.6679 585.185 51.625 593.062 51.625V48.625C584.274 48.625 577.091 52.0821 571.638 58.9416L573.987 60.8084ZM593.062 51.625C599.926 51.625 604.834 53.5527 608.069 57.1716C611.335 60.8243 613.127 66.4523 613.188 74.3241L616.187 74.3009C616.123 66.0477 614.248 59.5819 610.306 55.1721C606.333 50.7286 600.49 48.625 593.062 48.625V51.625ZM613.188 74.3125V119H616.188V74.3125H613.188ZM614.688 117.5H603.125V120.5H614.688V117.5ZM604.625 119V74.25H601.625V119H604.625ZM604.625 74.2372C604.582 69.174 603.415 65.128 600.839 62.4064L598.661 64.4686C600.501 66.4137 601.585 69.576 601.625 74.2628L604.625 74.2372ZM600.849 62.4168C598.291 59.6614 594.414 58.4375 589.562 58.4375V61.4375C593.961 61.4375 596.876 62.5469 598.651 64.4582L600.849 62.4168ZM589.562 58.4375C585.529 58.4375 581.93 59.5187 578.822 61.712L580.553 64.1629C583.112 62.3563 586.096 61.4375 589.562 61.4375V58.4375ZM578.822 61.712C575.774 63.8641 573.403 66.6883 571.714 70.1555L574.411 71.4695C575.888 68.4367 577.935 66.0109 580.553 64.1629L578.822 61.712ZM571.562 70.8125V119H574.562V70.8125H571.562ZM573.062 117.5H561.5V120.5H573.062V117.5ZM563 119V51.375H560V119H563ZM561.5 52.875H572.438V49.875H561.5V52.875Z" fill="white"/>
</svg>
