<svg width="140" height="136" viewBox="0 0 140 136" fill="none" xmlns="http://www.w3.org/2000/svg">
<path d="M139.039 85.5584L128.389 81.1884C128.739 80.6384 128.999 80.0284 129.129 79.3984L129.119 79.3484C129.139 79.3084 129.169 79.2685 129.189 79.2285L129.169 79.2084C129.239 78.3384 129.309 77.4284 129.699 76.6484C130.099 75.8584 130.909 75.2184 131.779 75.2884C132.359 75.3384 132.869 75.6784 133.319 76.0484C135.149 77.5484 136.389 79.6384 137.589 81.6884C138.169 82.6784 138.759 83.6884 138.959 84.8084C139.019 85.0484 139.039 85.2984 139.039 85.5584Z" fill="#705B03"/>
<path d="M138.09 87.9492C138.12 87.9192 138.16 87.8891 138.19 87.8591C135.93 95.4891 132.63 102.809 128.41 109.559C123.06 117.179 115.29 122.579 107.09 126.769C99.3995 130.699 91.2995 134.499 82.5595 135.159C73.4395 135.839 63.9895 134.319 55.0295 132.549C53.5495 132.249 52.0695 131.939 50.6395 131.479C48.9695 130.939 47.3695 130.199 45.7195 129.589C43.9595 128.929 42.1395 128.419 40.3695 127.759C31.4395 124.429 23.9995 117.319 18.1495 109.999C10.3895 100.309 3.51952 89.4091 1.37952 77.1791C-0.0104754 69.2691 0.649525 61.1692 1.30952 53.1692L1.70953 52.5691C3.66953 49.7191 5.63953 46.8791 7.59953 44.0291C7.92953 43.5391 8.17953 43.0092 8.34953 42.4492C10.7195 34.4791 9.83953 24.0391 8.39953 15.9991C7.44953 10.6791 5.46953 3.25914 13.9995 4.74914C16.4095 5.16914 16.9195 5.86913 19.4795 4.89913C22.0695 3.91913 24.6595 0.609137 27.6295 0.859137C27.7195 3.26914 26.5695 5.92913 26.2095 8.36913C25.7395 11.6091 25.1895 14.8291 24.6095 18.0491C23.2195 25.6991 21.8295 33.3591 20.4395 41.0191C20.4295 41.0591 20.4295 41.0891 20.4195 41.1291L20.2995 41.0491C19.9595 42.3191 19.6295 43.5791 19.2895 44.8491L19.2195 45.2891C21.1295 51.2091 23.7495 56.8992 27.0095 62.1992C31.2895 69.1491 36.6295 75.3891 42.0795 81.4691L42.3595 81.9091C49.7195 90.1991 60.6695 95.1591 71.7595 95.2591C71.6495 95.2591 71.5395 95.2591 71.4395 95.2591L72.7295 95.3491C89.2795 95.1791 105.33 90.1292 121.1 85.1392C123.56 84.3592 126.14 83.5191 127.95 81.6692L127.83 81.7291C127.85 81.6891 127.86 81.6591 127.88 81.6191L128.08 81.6392C128.19 81.4992 128.29 81.3591 128.39 81.2091L139.04 85.5791C138.59 86.4491 138.23 87.3491 137.95 88.2891L138.09 87.9492Z" fill="#6875F5"/>
<path d="M128.509 80.3691C128.409 80.6191 128.309 80.8691 128.219 81.1191L128.389 81.1891C128.289 81.3391 128.189 81.4791 128.079 81.6191L127.879 81.5992C128.079 81.1792 128.289 80.7691 128.509 80.3691Z" fill="#705B03"/>
<path d="M127.84 81.71L127.96 81.65C126.15 83.5 123.58 84.34 121.11 85.12C105.34 90.12 89.2805 95.16 72.7405 95.33L71.4505 95.24C71.5605 95.24 71.6705 95.24 71.7705 95.24C72.0905 95.24 72.4105 95.24 72.7305 95.24C72.4105 95.24 72.0905 95.24 71.7705 95.24C60.6905 95.14 49.7305 90.18 42.3705 81.89L42.0905 81.45C36.6505 75.36 31.3105 69.13 27.0205 62.18C23.7605 56.88 21.1405 51.19 19.2305 45.27L19.3005 44.83C19.6305 43.56 19.9705 42.29 20.3105 41.03L20.4305 41.11C20.4405 41.07 20.4405 41.04 20.4505 41L20.7505 41.05C22.3705 42.15 23.3605 43.93 24.3105 45.63C31.4605 58.38 39.7105 70.88 51.2305 79.89C59.4205 86.02 69.7505 89.23 79.9805 88.83C83.6105 88.69 87.2105 88.11 90.7905 87.52C103.04 85.53 115.3 83.54 127.55 81.56L127.87 81.59C127.87 81.63 127.85 81.67 127.84 81.71Z" fill="#5B69CE"/>
<path d="M71.77 95.2386C71.66 95.2386 71.55 95.2386 71.45 95.2386L72.74 95.3286C89.29 95.1586 105.34 90.1086 121.11 85.1186C123.57 84.3386 126.15 83.4986 127.96 81.6486L127.84 81.7086C127.86 81.6686 127.87 81.6386 127.89 81.5986C128.08 81.1786 128.29 80.7686 128.51 80.3686C128.7 80.0186 128.91 79.6786 129.12 79.3486C129.14 79.3086 129.17 79.2686 129.19 79.2286L129.17 79.2086C129.24 78.3386 129.31 77.4286 129.7 76.6486C130.1 75.8586 130.91 75.2186 131.78 75.2886C132.36 75.3386 132.87 75.6786 133.32 76.0486C135.15 77.5486 136.39 79.6386 137.59 81.6886C138.17 82.6786 138.76 83.6886 138.96 84.8086C139.01 85.0586 139.03 85.3086 139.03 85.5586C139.03 86.4086 138.78 87.2686 138.18 87.8586C138.15 87.8886 138.11 87.9186 138.08 87.9486C138.08 87.9486 138.08 87.9486 138.07 87.9586L137.94 88.2686C138.21 87.3286 138.58 86.4286 139.03 85.5586L128.38 81.1886L128.21 81.1186C128.31 80.8686 128.41 80.6186 128.5 80.3686C128.68 79.9086 128.86 79.4486 129.04 78.9786L129.11 79.3486L129.12 79.3986C128.99 80.0386 128.74 80.6486 128.38 81.1886C128.28 81.3386 128.18 81.4786 128.07 81.6186L127.87 81.5986L127.55 81.5686C115.3 83.5586 103.04 85.5486 90.79 87.5286C87.2 88.1086 83.61 88.6986 79.98 88.8386C69.76 89.2386 59.43 86.0286 51.23 79.8986C39.71 70.8986 31.46 58.3986 24.31 45.6386C23.36 43.9286 22.36 42.1586 20.75 41.0586" stroke="black" stroke-miterlimit="10"/>
<path d="M71.7695 95.2402C72.0895 95.2402 72.4095 95.2402 72.7295 95.2402C72.4095 95.2402 72.0895 95.2402 71.7695 95.2402Z" stroke="black" stroke-miterlimit="10"/>
<path d="M128.41 109.549C123.06 117.169 115.29 122.569 107.09 126.759C99.3995 130.689 91.2995 134.489 82.5595 135.149C73.4395 135.829 63.9895 134.309 55.0295 132.539C53.5495 132.239 52.0695 131.929 50.6395 131.469C48.9695 130.929 47.3695 130.189 45.7195 129.579C43.9595 128.919 42.1395 128.409 40.3695 127.749C31.4395 124.419 23.9995 117.309 18.1495 109.989C10.3895 100.299 3.51952 89.3994 1.37952 77.1694C-0.0104754 69.2594 0.649525 61.1594 1.30952 53.1594L1.70953 52.5594C3.66953 49.7094 5.63953 46.8694 7.59953 44.0194C7.92953 43.5294 8.17953 42.9994 8.34953 42.4394C10.7195 34.4694 9.83953 24.0294 8.39953 15.9894C7.44953 10.6694 5.46953 3.24937 13.9995 4.73937C16.4095 5.15937 16.9195 5.85936 19.4795 4.88936C22.0695 3.90936 24.6595 0.599371 27.6295 0.849371C27.7195 3.25937 26.5695 5.91937 26.2095 8.35937C25.7395 11.5994 25.1895 14.8194 24.6095 18.0394C23.2195 25.6894 21.8295 33.3494 20.4395 41.0094C20.4295 41.0494 20.4295 41.0794 20.4195 41.1194L20.2995 41.0394C19.9595 42.3094 19.6295 43.5694 19.2895 44.8394L19.2195 45.2794C21.1295 51.1994 23.7495 56.8894 27.0095 62.1894C31.2895 69.1394 36.6295 75.3794 42.0795 81.4594L42.3595 81.8994C49.7195 90.1894 60.6695 95.1494 71.7595 95.2494" stroke="black" stroke-miterlimit="10"/>
<path d="M137.73 89.1296L137.81 88.7896L137.9 88.6996L137.81 88.6196L138.09 87.9496L138.34 87.3496C138.29 87.5196 138.24 87.6896 138.19 87.8596C135.93 95.4896 132.63 102.81 128.41 109.56C128.35 109.66 128.29 109.76 128.23 109.86" stroke="black" stroke-miterlimit="10"/>
<path d="M27.3996 0.679688C25.8896 1.32969 24.7096 2.5497 23.5496 3.7197C21.6896 5.5897 19.4896 7.4997 16.8496 7.5497C14.2696 7.5997 11.6996 5.8297 9.26961 6.6897C8.93961 6.7997 8.61961 6.9797 8.42961 7.2697C8.22961 7.5797 8.21961 7.9597 8.10961 8.2997C7.99961 8.6497 7.70961 8.99969 7.34961 8.94969" stroke="black" stroke-miterlimit="10"/>
</svg>
