<?xml version="1.0" encoding="utf-8"?>
<!-- Generator: Adobe Illustrator 24.1.0, SVG Export Plug-In . SVG Version: 6.00 Build 0)  -->
<svg version="1.1" id="Base_shape" xmlns="http://www.w3.org/2000/svg" xmlns:xlink="http://www.w3.org/1999/xlink" x="0px" y="0px"
	 viewBox="0 0 800 600" style="enable-background:new 0 0 800 600;" xml:space="preserve">
<style type="text/css">
	.st0{fill:#705B03;}
	.st1{fill:#5B69CE;}
	.st2{fill:#6875F5;}
	.st3{fill:none;stroke:#000000;stroke-miterlimit:10;}
</style>
<g>
	<g id="XMLID_1_">
		<g>
			<path class="st0" d="M530.14,328.12l0.42,0.17c-0.22,0.35-0.47,0.69-0.73,1.02l-0.48-0.05c0.46-0.99,0.95-1.97,1.48-2.92
				C530.6,326.93,530.37,327.53,530.14,328.12z"/>
			<path class="st1" d="M394.55,362.04c0.76,0.01,1.52,0.01,2.29,0C396.08,362.04,395.32,362.04,394.55,362.04z M287.06,282.61
				c-7.84-12.73-14.13-26.4-18.72-40.63l0.18-1.06c0.81-3.05,1.61-6.1,2.42-9.14l0.29,0.2c0.02-0.09,0.03-0.17,0.05-0.26l0.72,0.13
				c3.88,2.64,6.27,6.91,8.57,11.01c17.16,30.64,36.99,60.67,64.66,82.3c19.68,14.74,44.5,22.46,69.06,21.48
				c8.73-0.34,17.37-1.74,25.98-3.14c29.44-4.77,58.88-9.55,88.32-14.32l0.76,0.08c-0.04,0.09-0.08,0.17-0.12,0.26l0.28-0.15
				c-4.35,4.44-10.52,6.47-16.45,8.34c-37.88,12.01-76.46,24.13-116.2,24.54l-3.1-0.21c0.26,0,0.52,0,0.78,0
				c-26.62-0.24-52.95-12.15-70.62-32.06l-0.67-1.07C310.18,314.29,297.34,299.32,287.06,282.61z"/>
			<path class="st2" d="M265.76,397.46c-18.65-23.29-35.16-49.46-40.3-78.85c-3.32-19-1.75-38.46-0.16-57.68l0.96-1.44
				c4.72-6.85,9.44-13.69,14.17-20.53c0.8-1.16,1.4-2.45,1.8-3.8c5.69-19.13,3.58-44.24,0.12-63.54
				c-2.28-12.77-7.03-30.61,13.46-27.03c5.79,1.02,7,2.7,13.16,0.36c6.23-2.36,12.46-10.3,19.57-9.71
				c0.22,5.79-2.55,12.18-3.4,18.04c-1.12,7.79-2.44,15.52-3.85,23.26c-3.33,18.39-6.67,36.79-10.01,55.18
				c-0.02,0.09-0.03,0.17-0.05,0.26l-0.29-0.2c-0.81,3.04-1.61,6.09-2.42,9.14l-0.18,1.06c4.59,14.23,10.88,27.9,18.72,40.63
				c10.28,16.71,23.12,31.68,36.19,46.3l0.67,1.07c17.67,19.91,44,31.82,70.62,32.06c-0.26,0-0.52,0-0.78,0l3.1,0.21
				c39.74-0.41,78.32-12.53,116.2-24.54c5.93-1.87,12.1-3.9,16.45-8.34l-0.28,0.15c0.04-0.09,0.08-0.17,0.12-0.26l0.48,0.05
				c0.26-0.33,0.51-0.67,0.73-1.02l25.58,10.48c-1.08,2.08-1.95,4.26-2.61,6.51l0.32-0.75c0.01-0.01,0.01-0.01,0.02-0.02
				c0.08-0.07,0.16-0.15,0.24-0.22c-5.43,18.33-13.36,35.92-23.48,52.14l-0.01,0.02c-12.85,18.28-31.54,31.27-51.21,41.32
				c-18.47,9.44-37.94,18.58-58.92,20.15c-21.91,1.64-44.61-2.01-66.12-6.28c-3.56-0.7-7.11-1.46-10.55-2.58
				c-4.02-1.3-7.86-3.08-11.81-4.55c-4.25-1.58-8.62-2.8-12.86-4.38C297.69,432.11,279.83,415.04,265.76,397.46z"/>
			<path class="st0" d="M532.48,323.56l-0.05-0.03c0.16-2.11,0.33-4.28,1.29-6.16c0.95-1.89,2.89-3.43,5-3.27
				c1.39,0.11,2.62,0.93,3.7,1.82c4.41,3.61,7.38,8.63,10.26,13.55c1.39,2.36,2.8,4.79,3.31,7.49c0.11,0.59,0.17,1.2,0.17,1.81
				h-0.02l-25.58-10.48c0.85-1.31,1.45-2.78,1.77-4.32l-0.02-0.13C532.36,323.74,532.42,323.65,532.48,323.56z"/>
		</g>
		<g>
			<path class="st3" d="M394.54,362.04c-0.26,0-0.52,0-0.78,0l3.1,0.21c39.74-0.41,78.32-12.53,116.2-24.54
				c5.93-1.87,12.1-3.9,16.45-8.34l-0.28,0.15c0.04-0.09,0.08-0.17,0.12-0.26c0.46-0.99,0.95-1.97,1.48-2.92
				c0.46-0.85,0.96-1.69,1.48-2.5c0.05-0.1,0.11-0.19,0.17-0.28l-0.05-0.03c0.16-2.11,0.33-4.28,1.29-6.16
				c0.95-1.89,2.89-3.43,5-3.27c1.39,0.11,2.62,0.93,3.7,1.82c4.41,3.61,7.38,8.63,10.26,13.55c1.39,2.36,2.8,4.79,3.31,7.49
				c0.11,0.59,0.17,1.2,0.17,1.81c0.01,2.05-0.62,4.11-2.05,5.52c-0.08,0.07-0.16,0.15-0.24,0.22c-0.01,0.01-0.01,0.01-0.02,0.02
				l-0.32,0.75c0.66-2.25,1.53-4.43,2.61-6.51l-25.58-10.48l-0.42-0.17c0.23-0.59,0.46-1.19,0.69-1.78
				c0.44-1.13,0.87-2.25,1.31-3.38l0.17,0.88l0.02,0.13c-0.32,1.54-0.92,3.01-1.77,4.32c-0.22,0.35-0.47,0.69-0.73,1.02l-0.48-0.05
				l-0.76-0.08c-29.44,4.77-58.88,9.55-88.32,14.32c-8.61,1.4-17.25,2.8-25.98,3.14c-24.56,0.98-49.38-6.74-69.06-21.48
				c-27.67-21.63-47.5-51.66-64.66-82.3c-2.3-4.1-4.69-8.37-8.57-11.01"/>
			<path class="st3" d="M394.55,362.04c0.76,0.01,1.52,0.01,2.29,0C396.08,362.04,395.32,362.04,394.55,362.04z"/>
			<path class="st3" d="M394.55,362.04c0,0,0,0-0.01,0"/>
			<path class="st3" d="M530.62,396.45c-12.85,18.28-31.54,31.27-51.21,41.32c-18.47,9.44-37.94,18.58-58.92,20.15
				c-21.91,1.64-44.61-2.01-66.12-6.28c-3.56-0.7-7.11-1.46-10.55-2.58c-4.02-1.3-7.86-3.08-11.81-4.55
				c-4.25-1.58-8.62-2.8-12.86-4.38c-21.46-8.02-39.32-25.09-53.39-42.67c-18.65-23.29-35.16-49.46-40.3-78.85
				c-3.32-19-1.75-38.46-0.16-57.68l0.96-1.44c4.72-6.85,9.44-13.69,14.17-20.53c0.8-1.16,1.4-2.45,1.8-3.8
				c5.69-19.13,3.58-44.24,0.12-63.54c-2.28-12.77-7.03-30.61,13.46-27.03c5.79,1.02,7,2.7,13.16,0.36
				c6.23-2.36,12.46-10.3,19.57-9.71c0.22,5.79-2.55,12.18-3.4,18.04c-1.12,7.79-2.44,15.52-3.85,23.26
				c-3.33,18.39-6.67,36.79-10.01,55.18c-0.02,0.09-0.03,0.17-0.05,0.26l-0.29-0.2c-0.81,3.04-1.61,6.09-2.42,9.14l-0.18,1.06
				c4.59,14.23,10.88,27.9,18.72,40.63c10.28,16.71,23.12,31.68,36.19,46.3l0.67,1.07c17.67,19.91,44,31.82,70.62,32.06"/>
			<line class="st3" x1="530.19" y1="397.14" x2="530.62" y2="396.45"/>
			<path class="st3" d="M552.99,347.35l0.2-0.82l0.21-0.2l-0.21-0.21l0.68-1.61l0.61-1.45c-0.12,0.41-0.24,0.82-0.37,1.23
				c-5.43,18.33-13.36,35.92-23.48,52.14l-0.01,0.02"/>
		</g>
	</g>
	<path class="st3" d="M287.94,134.87c-3.63,1.55-6.45,4.5-9.24,7.3c-4.48,4.5-9.76,9.08-16.11,9.19
		c-6.19,0.11-12.38-4.12-18.22-2.07c-0.79,0.28-1.57,0.69-2.02,1.39c-0.47,0.73-0.51,1.65-0.78,2.48c-0.27,0.83-0.96,1.68-1.83,1.56
		"/>
</g>
</svg>
